# xmcd
#
# Track frame offsets: 
#        150
#        13828
#        32255
#        51668
#        71618
#        92000
#        111430
#        126670
#
# Disc length: 2006 seconds
#
# Revision: 3
# Processed by: cddbd v1.5.2PL0 Copyright (c) Steve Scherf et al.
# Submitted via: ExactAudioCopy v0.99pb4
#
DISCID=7207d408
DTITLE=38 Special - Special Delivery
DYEAR=1978
DGENRE=Southern Rock
TTITLE0=I'm A Fool for You
TTITLE1=Turnin' To You
TTITLE2=Travelin' Man
TTITLE3=I Been A Mover
TTITLE4=What Can I Do
TTITLE5=Who's Been Messin'
TTITLE6=Can't Keep A Good Man Down
TTITLE7=Take Me Back
EXTD=Produced by Dan Hartman\n
EXTT0=
EXTT1=
EXTT2=
EXTT3=
EXTT4=
EXTT5=
EXTT6=
EXTT7=
PLAYORDER=
